<?xml version="1.0" encoding="UTF-8"?>
<svg id="Layer_1" data-name="Layer 1" xmlns="http://www.w3.org/2000/svg" viewBox="0 0 1110.3 1047.85">
  <defs>
    <style>
      .cls-1 {
        fill: #fff;
      }
    </style>
  </defs>
  <path class="cls-1" d="M913.29,231.71c215.05,254.86,10.63,625.09-320.87,579.95-178.26-24.27-332.62-171.11-317.25-359.9,11.6-142.58,155.23-236.91,279.42-144.94,208.71-141.07,388.08,170.9,201.6,315.89-24.36,18.94-92.89,57.73-115.15,21.64-30.75-49.87,27.66-59.16,54.03-78.67,8.71-6.45,30.7-27.91,36.98-36.46,65.79-89.47-27.87-236.08-131.89-160.45-20.48,14.89-31.38,43.09-61.4,27.33-38.32-20.12-45.78-58.74-105.61-47.44-81.26,15.35-88.2,137.45-68.42,201.11,74.64,240.24,460.48,260.22,542.96,4.13,82.06-254.75-183.75-435.01-413.83-401.59-274.47,39.87-395.68,316.84-236.86,545.98,21.42,30.91,55.93,54.47,72.55,86.92l-21.79,96.91c4.93,4.6,61.2-24.1,70.58-29.34,25.45-14.22,45.48-45.13,78.39-19.66,64.24,49.74-78.48,105.81-111.26,117.34-25.69,9.03-114.54,40.11-131.85,15.63-16.68-23.59,30.42-125.41,31.26-157.71C62.74,620.06,50.62,304.38,285.19,151.71c195.66-127.35,475.15-101.26,628.1,80.01Z"/>
</svg>