<?xml version="1.0" encoding="UTF-8"?>
<svg id="Layer_1" data-name="Layer 1" xmlns="http://www.w3.org/2000/svg" xmlns:xlink="http://www.w3.org/1999/xlink" viewBox="0 0 1080 1080">
  <defs>
    <style>
      .cls-1 {
        letter-spacing: 0em;
      }

      .cls-2 {
        font-family: Montserrat-Medium, Montserrat;
        font-size: 66.54px;
        font-weight: 500;
      }

      .cls-3 {
        fill: url(#linear-gradient);
      }

      .cls-4 {
        letter-spacing: 0em;
      }

      .cls-5 {
        letter-spacing: -.01em;
      }

      .cls-6 {
        letter-spacing: -.01em;
      }

      .cls-7 {
        letter-spacing: -.02em;
      }

      .cls-8 {
        letter-spacing: 0em;
      }

      .cls-9 {
        font-family: Montserrat-Bold, Montserrat;
        font-size: 100.83px;
        font-weight: 700;
      }

      .cls-10 {
        letter-spacing: -.01em;
      }

      .cls-11 {
        letter-spacing: 0em;
      }

      .cls-12 {
        letter-spacing: .01em;
      }
    </style>
    <linearGradient id="linear-gradient" x1="330.1" y1="423.46" x2="749.9" y2="423.46" gradientUnits="userSpaceOnUse">
      <stop offset=".1" stop-color="#378de2"/>
      <stop offset=".46" stop-color="#5a0dd3"/>
      <stop offset=".88" stop-color="#cc117c"/>
    </linearGradient>
  </defs>
  <path class="cls-3" d="M708.34,286.11c101.08,119.79,5,293.82-150.82,272.6-83.79-11.41-156.34-80.43-149.12-169.17,5.45-67.02,72.96-111.36,131.34-68.13,98.1-66.31,182.42,80.33,94.76,148.48-11.45,8.9-43.66,27.13-54.12,10.17-14.45-23.44,13-27.81,25.4-36.98,4.1-3.03,14.43-13.12,17.38-17.14,30.92-42.06-13.1-110.97-61.99-75.42-9.62,7-14.75,20.25-28.86,12.84-18.01-9.46-21.52-27.61-49.64-22.3-38.19,7.22-41.46,64.61-32.16,94.53,35.09,112.92,216.44,122.31,255.21,1.94,38.57-119.74-86.37-204.47-194.52-188.77-129.01,18.74-185.99,148.93-111.33,256.63,10.07,14.53,26.29,25.6,34.1,40.85l-10.24,45.55c2.32,2.16,28.77-11.33,33.17-13.79,11.96-6.68,21.38-21.21,36.84-9.24,30.2,23.38-36.89,49.74-52.3,55.15-12.07,4.24-53.84,18.85-61.98,7.35-7.84-11.09,14.3-58.95,14.69-74.13-85.61-88.51-91.31-236.89,18.95-308.66,91.97-59.86,223.34-47.59,295.23,37.61Z"/>
  <g>
    <text class="cls-9" transform="translate(202.39 774.32)"><tspan class="cls-8" x="0" y="0">V</tspan><tspan class="cls-1" x="74.71" y="0">i</tspan><tspan class="cls-5" x="105.06" y="0">v</tspan><tspan class="cls-1" x="163.84" y="0">ek </tspan><tspan class="cls-7" x="322.54" y="0">K</tspan><tspan x="395.43" y="0">umar</tspan></text>
    <text class="cls-2" transform="translate(218.91 851.2)"><tspan x="0" y="0">vi</tspan><tspan class="cls-6" x="55.76" y="0">v</tspan><tspan class="cls-4" x="91.96" y="0">ek</tspan><tspan class="cls-11" x="173.68" y="0">f</tspan><tspan x="196.64" y="0">o</tspan><tspan class="cls-12" x="238.89" y="0">r</tspan><tspan class="cls-6" x="267.17" y="0">y</tspan><tspan x="303.37" y="0">ou</tspan><tspan class="cls-10" x="390.68" y="0">.</tspan><tspan x="404.99" y="0">official</tspan></text>
  </g>
</svg>